Coordinates
version=1
nRows=16
nColumns=36
inDegrees=yes

Units are S.I. units (second, meters, Newtons, ...)
If the header above contains a line with 'inDegrees', this indicates whether rotational values are in degrees (yes) or radians (no).

endheader
time	pelvis_tilt	pelvis_list	pelvis_rotation	pelvis_tx	pelvis_ty	pelvis_tz	hip_flexion_r	hip_adduction_r	hip_rotation_r	knee_angle_r	knee_angle_r_beta	ankle_angle_r	subtalar_angle_r	mtp_angle_r	hip_flexion_l	hip_adduction_l	hip_rotation_l	knee_angle_l	knee_angle_l_beta	ankle_angle_l	subtalar_angle_l	mtp_angle_l	lumbar_extension	lumbar_bending	lumbar_rotation	arm_flex_r	arm_add_r	arm_rot_r	elbow_flex_r	pro_sup_r	arm_flex_l	arm_add_l	arm_rot_l	elbow_flex_l	pro_sup_l
      0.00000000	     -0.60097526	     -3.08097968	     13.36183799	     -0.40117721	      1.25852539	      0.05344487	      6.95174089	      0.82130082	     -1.69598255	      9.36640484	      0.16347460	      8.96802642	    -10.31065289	     -5.90745501	      4.33704899	     -0.42899567	     -3.76637804	      6.66946005	      0.11640404	      3.04545782	    -15.78804684	     -5.90745501	     -0.05441386	      1.44331659	     -1.15627323	      1.64473447	    -10.86037111	     25.98616112	     26.20907919	     70.80888820	     -4.86165809	    -12.48822418	     22.98418459	     28.51068645	     65.82436794
      0.01666670	     -1.75794912	     -3.71649331	     13.48172664	     -0.39938130	      1.25565266	      0.05233067	      7.87537612	      1.14001814	     -2.10784161	      8.49356880	      0.14824074	      9.10045967	     -8.21654266	     -6.16843345	      6.03598921	     -0.54522540	     -6.08182214	      6.60760186	      0.11532441	      4.27737489	    -13.72151084	     -6.16843345	      2.51437093	      1.97103431	     -1.41301129	      1.10009077	    -11.33569346	     27.03611619	     27.67511005	     70.98102084	     -5.30337724	    -12.51771854	     23.46815568	     29.77467806	     65.92116631
      0.03333330	     -2.51778207	     -3.15259122	     13.25466216	     -0.39875196	      1.25639957	      0.05246828	      7.75000895	      0.32384012	     -2.42637149	      7.22180916	      0.12604435	      8.55203531	     -7.37898183	     -6.40876080	      6.40120911	      0.23258526	     -8.48282690	      5.82137995	      0.10160225	      5.14192906	    -10.55877397	     -6.40876080	      3.71072641	      0.98933664	     -1.39194738	      1.37411620	    -11.36423834	     29.11382679	     27.58797153	     72.62550932	     -5.34085907	    -13.09905211	     24.66603826	     29.88426819	     67.01717741
      0.05000000	     -2.79632495	     -2.64582247	     13.05046270	     -0.39827460	      1.25406539	      0.05280575	      7.56831019	     -0.28911250	     -2.34848840	      6.30005331	      0.10995667	      8.66843495	     -6.71708906	     -6.48040801	      5.96908916	      0.87935756	     -9.38657383	      4.67389534	      0.08157486	      4.98238948	     -9.53715879	     -6.48040801	      3.98011414	      0.36496686	     -1.24923829	      1.39590850	    -11.26668509	     29.27775059	     27.57593744	     72.91261730	     -5.36260442	    -13.26488326	     24.44912035	     29.91774079	     67.31780041
      0.06666670	     -2.97691764	     -2.36118385	     12.91872419	     -0.39791856	      1.25383575	      0.05298891	      7.33764318	     -0.56548601	     -2.14661602	      5.54859696	      0.09684129	      8.47204169	     -6.53483532	     -6.55734694	      5.68495955	      1.26597182	     -9.81618240	      3.93560507	      0.06868927	      5.00469716	     -8.63964520	     -6.55734694	      4.25076871	      0.04470934	     -1.24384097	      1.14851635	    -11.22464271	     29.34569830	     27.89871897	     72.94734641	     -5.56018423	    -13.22424236	     24.04037034	     29.97308705	     67.40247385
      0.08333330	     -3.06668049	     -2.18581279	     12.78219296	     -0.39824099	      1.25686428	      0.05304487	      7.11437834	     -0.69389494	     -1.86338937	      4.99123676	      0.08711352	      8.17893839	     -6.39494895	     -6.64927011	      5.41041030	      1.51258041	    -10.21333624	      3.40801898	      0.05948115	      5.05782911	     -7.64675979	     -6.64927011	      4.35918595	     -0.08025258	     -1.19190368	      1.15737559	    -11.20314519	     29.15066429	     27.99932858	     72.67995306	     -5.73128411	    -13.07950216	     23.33241445	     29.93522502	     67.26986877
      0.10000000	     -3.04723136	     -2.10148800	     12.69097948	     -0.39786392	      1.25358019	      0.05328947	      6.96870841	     -0.70304509	     -1.81676393	      4.92792942	      0.08600859	      8.01651621	     -6.34355617	     -6.68898311	      5.15207656	      1.60195314	    -10.42904805	      3.18201533	      0.05553664	      5.57434169	     -6.87434277	     -6.68898311	      4.49992183	     -0.10181001	     -1.23741126	      1.41936641	    -10.94753395	     29.13290015	     27.14180880	     73.81728395	     -6.19887742	    -12.86372772	     22.01720484	     29.77687734	     68.11493826
      0.11666670	     -3.10231237	     -2.01626995	     12.65651312	     -0.39778601	      1.25684054	      0.05312021	      6.80328206	     -0.73686929	     -1.66670134	      4.72544621	      0.08247460	      7.75809796	     -6.49037864	     -7.05873871	      5.09481635	      1.70565658	    -10.51165226	      3.06534852	      0.05350042	      5.44279767	     -6.51755591	     -7.05873871	      4.51114157	     -0.21438443	     -1.57592697	      1.67829082	    -10.83152556	     28.45361116	     26.88627136	     78.46830303	     -6.97911356	    -12.49396071	     18.32444541	     30.60683669	     73.87427204
      0.13333330	     -3.02808930	     -1.94599837	     12.61590668	     -0.39835858	      1.25630226	      0.05347199	      6.48215378	     -0.73512579	     -1.53783748	      4.34609240	      0.07585362	      7.53421412	     -6.46230938	     -7.08682862	      4.89997019	      1.76450857	    -10.55110899	      2.91012323	      0.05079123	      5.36760623	     -6.30013142	     -7.08682862	      4.42418133	     -0.29831116	     -1.37282549	      1.46175514	    -10.77874714	     28.45602408	     26.84670809	     77.88529794	     -6.92510896	    -12.56576282	     18.16289056	     31.02812589	     73.40876394
      0.15000000	     -2.93668209	     -1.86325184	     12.46969198	     -0.39857447	      1.25659417	      0.05359629	      6.31372846	     -0.72646401	     -1.55716360	      4.47449334	      0.07809464	      7.38763893	     -6.41158525	     -7.12589772	      4.81211876	      1.78167197	    -10.59822807	      2.95376683	      0.05155296	      5.04970079	     -6.26281220	     -7.12589772	      4.30124318	     -0.38389219	     -1.23772818	      1.49674568	    -10.80246840	     28.56351873	     26.87867980	     77.00167230	     -6.99538350	    -12.49006649	     18.10737821	     31.51202935	     72.70440515
      0.16666670	     -2.90923205	     -1.87578504	     12.34887682	     -0.39848059	      1.25612363	      0.05372384	      6.35255577	     -0.69064364	     -1.50231912	      4.54591018	      0.07934110	      7.15744749	     -6.54311638	     -7.15888301	      4.77272629	      1.74884257	    -10.70525917	      2.90891125	      0.05077008	      4.90336579	     -6.13441800	     -7.15888301	      4.27604427	     -0.36121441	     -1.27533195	      1.72137345	    -10.87236815	     29.14757158	     26.73673255	     76.68030462	     -6.90846866	    -12.38929887	     18.36201327	     31.52912019	     72.45451050
      0.18333330	     -2.92199344	     -1.82422857	     12.21135383	     -0.39826980	      1.25340366	      0.05395798	      6.45402528	     -0.75133298	     -1.48576112	      4.61107911	      0.08047851	      7.00909506	     -6.62478869	     -7.19077525	      4.75888443	      1.78195437	    -10.70394512	      2.78527144	      0.04861216	      4.68744161	     -6.16595845	     -7.19077525	      4.21394434	     -0.38847215	     -1.09445893	      1.68267244	    -10.98009667	     29.41094767	     26.92395447	     76.04206828	     -6.82269520	    -12.44538794	     18.38784283	     32.14999861	     71.97597889
      0.20000000	     -2.94736283	     -1.84278541	     12.05215475	     -0.39894241	      1.25893934	      0.05369780	      6.53976343	     -0.72340606	     -1.53018893	      4.75303511	      0.08295611	      6.95442291	     -6.61935848	     -7.19186763	      4.86034154	      1.75449424	    -10.62362818	      2.82657437	      0.04933303	      4.67740823	     -6.11244181	     -7.19186763	      4.15563149	     -0.31904964	     -1.03974495	      1.80933982	    -11.04131327	     29.43840452	     26.94472421	     76.04746459	     -6.84745244	    -12.32366065	     18.44121187	     32.19420209	     71.98816041
      0.21666670	     -2.78257610	     -1.89346668	     11.89119471	     -0.39877749	      1.25635528	      0.05401579	      6.50774739	     -0.64132515	     -1.35304751	      4.84057754	      0.08448402	      6.82081391	     -6.83975070	     -7.21148983	      4.59930362	      1.67196908	    -10.69956143	      2.64119407	      0.04609753	      4.70661306	     -6.11018623	     -7.21148983	      3.95621244	     -0.17249111	     -0.81818547	      1.86670043	    -11.22858257	     29.99567399	     26.97009972	     75.75006623	     -6.82499209	    -12.32873517	     18.72893344	     32.58847219	     71.76927668
      0.23333330	     -3.19075265	     -1.96405816	     11.79141215	     -0.39801674	      1.25279765	      0.05409920	      7.05135273	     -0.71832388	     -1.47264434	      4.93402022	      0.08611490	      6.98096408	     -6.68712885	     -7.23182899	      5.04075764	      1.67656973	    -10.68168230	      2.55493044	      0.04459195	      5.00043998	     -6.03976507	     -7.23182899	      4.49453059	     -0.12720281	     -0.79268571	      1.48082782	    -11.48329772	     29.99894920	     27.92041287	     75.01274733	     -7.26700354	    -12.43578966	     18.75256189	     33.54687473	     71.20433373
      0.25000000	     -2.82519872	     -1.91768020	     11.66344547	     -0.39848098	      1.25413287	      0.05424537	      6.71116074	     -0.70381126	     -1.37092679	      4.96279451	      0.08661710	      6.64446430	     -7.07696295	     -7.27922276	      4.60324111	      1.62915561	    -10.61071857	      2.32743150	      0.04062134	      4.83183962	     -6.24636735	     -7.27922276	      4.05245962	     -0.10587092	     -0.78278027	      2.26732410	    -11.47069537	     32.16419736	     26.53763185	     75.18247130	     -6.66684377	    -12.44030686	     20.03119163	     32.84396974	     71.52395281
